<?xml version="1.0" standalone="no"?>
<!DOCTYPE svg PUBLIC "-//W3C//DTD SVG 20010904//EN"
 "http://www.w3.org/TR/2001/REC-SVG-20010904/DTD/svg10.dtd">
<svg version="1.0" xmlns="http://www.w3.org/2000/svg"
 width="120.000000pt" height="120.000000pt" viewBox="0 0 120.000000 120.000000"
 preserveAspectRatio="xMidYMid meet">
<metadata>
Created by potrace 1.14, written by Peter Selinger 2001-2017
</metadata>
<g transform="translate(0.000000,120.000000) scale(0.100000,-0.100000)"
fill="#000000" stroke="none">
<path d="M320 1014 c-118 -86 -224 -162 -235 -170 -18 -13 -19 -27 -20 -258
l0 -245 190 -138 c104 -76 209 -153 232 -170 24 -18 51 -33 61 -33 11 0 45 19
78 42 80 58 254 186 337 248 l67 51 0 244 0 244 -232 170 c-128 94 -240 171
-248 170 -8 0 -112 -70 -230 -155z m343 4 c62 -45 149 -109 195 -142 l83 -61
-22 -18 c-13 -10 -101 -74 -196 -143 l-173 -125 -48 33 c-26 18 -51 36 -57 41
-23 19 -251 180 -262 184 -43 17 -15 42 265 238 31 21 66 47 76 57 11 10 21
18 23 18 2 0 54 -37 116 -82z m-198 -509 l50 -38 0 -186 c1 -139 -2 -185 -11
-185 -7 0 -14 4 -16 8 -1 4 -83 66 -180 137 l-178 129 0 187 0 188 143 -101
c78 -56 165 -118 192 -139z m504 52 l2 -189 -113 -82 c-62 -45 -122 -88 -133
-96 -11 -8 -44 -32 -74 -54 -30 -22 -58 -40 -63 -40 -4 0 -8 83 -8 185 l0 184
58 42 c63 46 91 66 232 169 52 39 95 70 96 70 1 0 2 -85 3 -189z"/>
</g>
</svg>
