<?xml version="1.0" standalone="no"?>
<!DOCTYPE svg PUBLIC "-//W3C//DTD SVG 20010904//EN"
 "http://www.w3.org/TR/2001/REC-SVG-20010904/DTD/svg10.dtd">
<svg version="1.0" xmlns="http://www.w3.org/2000/svg"
 width="111.000000pt" height="120.000000pt" viewBox="0 0 111.000000 120.000000"
 preserveAspectRatio="xMidYMid meet">

<g transform="translate(0.00000,120.000000) scale(0.100000,-0.100000)"
fill="#fff" stroke="none">
<path d="M313 1042 c-94 -70 -199 -147 -232 -171 l-61 -44 0 -242 0 -243 230
-168 c127 -93 240 -169 250 -169 11 0 123 76 250 168 l230 168 0 242 0 242
-232 170 c-128 94 -239 171 -248 172 -8 1 -92 -55 -187 -125z m243 20 c29 -20
89 -64 134 -97 45 -33 107 -78 138 -100 30 -22 57 -44 58 -50 2 -5 -13 -22
-34 -37 -164 -119 -337 -241 -347 -244 -6 -3 -63 32 -126 77 -63 45 -136 98
-164 117 -27 20 -65 46 -83 60 l-34 24 125 92 c221 161 270 196 276 196 3 -1
29 -18 57 -38z m-284 -446 c84 -60 163 -116 175 -125 22 -16 22 -21 23 -208 0
-106 -2 -193 -5 -193 -3 0 -31 20 -62 43 -32 24 -94 70 -138 102 -44 33 -104
77 -132 98 l-53 39 0 190 c0 186 0 190 19 177 11 -8 88 -63 173 -123z m648
-58 l-1 -193 -179 -129 c-99 -72 -186 -134 -195 -138 -13 -8 -15 14 -15 184
l0 194 146 104 c164 119 237 170 241 170 2 0 3 -87 3 -192z"/>
</g>
</svg>
