<svg id="Warstwa_1" data-name="Warstwa 1" xmlns="http://www.w3.org/2000/svg" viewBox="0 0 376 178">
  <defs>
    <style>
      .cls-2 {
        fill: #fff;
      }
    </style>
  </defs>
  <title>Base_negative</title>
  <g stroke="null" stroke-width="10" id="svg_1" fill="white" transform="translate(0 137) scale(0.1 -0.1)">
   <path stroke="null" id="svg_2" d="m288.63082,931.75333l-243.63066,-176.16762l0,-246.24535l0,-246.24535l42.24241,-33.09226c87.43197,-70.07773 447.96604,-328.0027 456.80748,-328.0027c5.89429,0 40.27765,21.41264 77.60815,48.66509c36.34812,26.27915 144.41011,105.11659 238.71875,173.24772l171.91679,125.55593l2.94715,254.03177l1.96476,254.03177l-236.75398,172.27442c-130.65676,94.41027 -244.61304,173.24772 -253.45447,175.19432c-8.84144,1.9466 -124.76247,-75.91754 -258.36638,-173.24772zm466.6313,-45.74518c107.0796,-76.89084 193.52919,-142.10206 193.52919,-145.99527c-0.98238,-2.91991 -16.70049,-17.51943 -37.3305,-31.14566c-19.64763,-13.62623 -111.00913,-78.83744 -201.38824,-144.04866l-166.0225,-118.74282l-204.33539,144.04866c-112.97389,79.81075 -204.33539,146.96857 -203.35301,150.86178c3.92953,15.57283 405.72363,295.88374 415.54745,291.01723c5.89429,-2.91991 97.25579,-69.10443 203.35301,-145.99527zm-390.98791,-388.34741l147.35725,-104.14329l2.94715,-196.60696c0.98238,-109.0098 0,-197.58026 -3.92953,-197.58026c-5.89429,0 -89.39673,59.37141 -295.69688,211.20649l-111.00913,81.75735l0,194.66036l0,194.66036l56.97814,-39.90537c30.45383,-22.38594 122.79771,-86.62386 203.35301,-144.04866zm613.98855,-14.59953l0,-198.55356l-193.52919,-140.15546c-106.09722,-76.89084 -196.47634,-141.12876 -201.38824,-143.07536c-3.92953,-1.9466 -7.85905,85.65056 -7.85905,194.66036l0,197.58026l199.42348,143.07536c109.04437,78.83744 199.42348,143.07536 201.38824,143.07536c0.98238,0.9733 1.96476,-87.59716 1.96476,-196.60696z"/>
   <path stroke="null" id="svg_3" d="m1294.58965,751.6925c1.96476,-9.73302 12.77096,-18.49273 25.54192,-20.43934c19.64763,-2.91991 21.6124,-8.75972 21.6124,-69.10443l0,-67.15782l-43.22479,15.57283c-121.81533,43.79858 -226.93017,-77.86414 -193.52919,-224.83271c14.73573,-65.21122 33.40098,-92.46367 75.64339,-109.9831c46.17194,-19.46604 72.69624,-17.51943 124.76247,9.73302c43.22479,21.41264 46.17194,21.41264 46.17194,4.86651c0,-15.57283 7.85905,-18.49273 45.18956,-18.49273c37.3305,0 44.20718,2.91991 41.26003,17.51943c-1.96476,8.75972 -12.77096,17.51943 -25.54192,19.46604l-21.6124,2.91991l0,228.72592l0,227.75262l-50.10147,0c-42.24241,0 -49.11908,-2.91991 -46.17194,-16.54613zm25.54192,-193.68706c19.64763,-12.65292 21.6124,-21.41264 21.6124,-110.9564c0,-95.38358 0,-96.35688 -28.48907,-115.82291c-40.27765,-28.22575 -103.15008,-27.25245 -132.62153,1.9466c-45.18956,44.77188 -44.20718,158.64819 0,211.20649c35.36574,40.87868 88.41435,45.74518 139.4982,13.62623z"/>
   <path stroke="null" id="svg_4" d="m2098.17787,748.7726c0,-14.59953 6.87667,-19.46604 24.55954,-19.46604l24.55954,0l0,-208.28658l0,-209.25988l-21.6124,-2.91991c-12.77096,-1.9466 -23.57716,-10.70632 -25.54192,-19.46604c-2.94715,-15.57283 5.89429,-17.51943 71.71386,-17.51943c64.83719,0 74.66101,1.9466 69.7491,15.57283c-2.94715,8.75972 -5.89429,17.51943 -5.89429,19.46604c0,1.9466 -8.84144,3.89321 -19.64763,3.89321c-17.68287,0 -19.64763,6.81311 -19.64763,63.26462c0,35.03886 2.94715,63.26462 5.89429,63.26462c3.92953,0 42.24241,-36.98547 84.48482,-82.73065c69.7491,-72.99763 82.52006,-82.73065 112.97389,-82.73065c26.52431,0 33.40098,3.89321 30.45383,17.51943c-1.96476,8.75972 -12.77096,17.51943 -24.55954,19.46604c-12.77096,1.9466 -51.08385,35.03886 -87.43197,75.91754l-65.81957,72.99763l48.1367,49.63839c26.52431,26.27915 62.87243,55.4782 80.5553,62.29131c54.03099,23.35924 41.26003,42.82528 -28.48907,42.82528c-57.96052,0 -59.92528,-0.9733 -54.03099,-21.41264c3.92953,-17.51943 -4.91191,-32.11896 -40.27765,-68.13113c-25.54192,-26.27915 -50.10147,-46.71849 -54.03099,-46.71849c-3.92953,0 -7.85905,66.18452 -7.85905,145.99527l0,145.99527l-49.11908,0c-42.24241,0 -49.11908,-2.91991 -49.11908,-19.46604z"/>
   <path stroke="null" id="svg_5" d="m1587.33939,613.48365c-74.66101,-23.35924 -111.00913,-79.81075 -111.00913,-171.30111c0,-83.70395 37.3305,-144.04866 104.13246,-169.35451c50.10147,-19.46604 123.78009,-6.81311 166.0225,28.22575c17.68287,14.59953 20.63002,20.43934 9.82382,30.17236c-9.82382,10.70632 -17.68287,9.73302 -42.24241,-4.86651c-34.38336,-20.43934 -103.15008,-23.35924 -135.56867,-6.81311c-22.59478,12.65292 -58.9429,79.81075 -59.92528,109.9831c0,14.59953 14.73573,17.51943 125.74485,19.46604l124.76247,2.91991l-2.94715,37.95877c-5.89429,74.94424 -46.17194,117.76952 -116.90342,126.52923c-20.63002,2.91991 -48.1367,0.9733 -61.89005,-2.91991zm77.60815,-40.87868c28.48907,-9.73302 59.92528,-50.61169 59.92528,-76.89084c0,-5.83981 -36.34812,-9.73302 -98.23817,-9.73302c-78.59053,0 -98.23817,2.91991 -98.23817,13.62623c0,21.41264 47.15432,72.02433 71.71386,76.89084c11.78858,1.9466 24.55954,4.86651 27.50669,5.83981c2.94715,0 19.64763,-3.89321 37.3305,-9.73302z"/>
   <path stroke="null" id="svg_6" d="m1894.82486,611.53705c-38.31289,-10.70632 -71.71386,-51.58499 -71.71386,-86.62386c0,-42.82528 33.40098,-73.97094 103.15008,-97.33018c85.46721,-28.22575 103.15008,-59.37141 58.9429,-102.19669c-15.71811,-16.54613 -34.38336,-24.33254 -55.99576,-24.33254c-43.22479,0 -55.01337,8.75972 -58.9429,43.79858c-1.96476,21.41264 -8.84144,30.17236 -24.55954,32.11896c-20.63002,2.91991 -22.59478,0 -22.59478,-45.74518l0,-48.66509l41.26003,-11.67962c101.18531,-26.27915 184.68776,18.49273 184.68776,98.30348c0,48.66509 -19.64763,69.10443 -94.30864,97.33018c-70.73148,26.27915 -82.52006,35.03886 -82.52006,65.21122c0,28.22575 49.11908,52.5583 90.37911,44.77188c20.63002,-3.89321 27.50669,-10.70632 29.47145,-36.01217c1.96476,-22.38594 7.85905,-31.14566 25.54192,-33.09226c19.64763,-2.91991 21.6124,0 21.6124,44.77188l0,48.66509l-49.11908,10.70632c-56.97814,11.67962 -53.04861,11.67962 -95.29102,0z"/>
   <path stroke="null" id="svg_7" d="m2725.91976,612.51035c-37.3305,-10.70632 -77.60815,-38.93207 -77.60815,-54.5049c0,-22.38594 17.68287,-24.33254 51.08385,-3.89321c41.26003,24.33254 97.25579,25.30585 118.86818,1.9466c9.82382,-9.73302 16.70049,-34.06556 16.70049,-52.5583l0,-35.03886l-65.81957,-11.67962c-98.23817,-16.54613 -139.4982,-47.69179 -140.48058,-104.14329c0,-19.46604 8.84144,-41.85198 23.57716,-58.39811c20.63002,-23.35924 31.43621,-27.25245 76.62577,-27.25245c38.31289,0 59.92528,5.83981 84.48482,22.38594c31.43621,22.38594 31.43621,22.38594 31.43621,2.91991c0,-17.51943 5.89429,-20.43934 45.18956,-20.43934c37.3305,0 44.20718,2.91991 41.26003,17.51943c-1.96476,8.75972 -12.77096,17.51943 -25.54192,19.46604c-20.63002,2.91991 -21.6124,6.81311 -21.6124,114.84961c0,129.44914 -11.78858,162.5414 -63.85481,184.92734c-37.3305,14.59953 -55.99576,15.57283 -94.30864,3.89321zm109.04437,-225.80601c-0.98238,-33.09226 -5.89429,-45.74518 -25.54192,-60.34471c-36.34812,-25.30585 -94.30864,-31.14566 -114.93866,-10.70632c-38.31289,36.98547 -10.8062,84.67726 57.96052,101.22339c76.62577,17.51943 82.52006,15.57283 82.52006,-30.17236z"/>
   <path stroke="null" id="svg_8" d="m3124.76672,615.43025c-10.8062,-2.91991 -31.43621,-13.62623 -45.18956,-23.35924c-25.54192,-17.51943 -26.52431,-17.51943 -31.43621,0.9733c-3.92953,15.57283 -13.75334,19.46604 -51.08385,19.46604c-38.31289,0 -45.18956,-2.91991 -42.24241,-16.54613c1.96476,-9.73302 12.77096,-18.49273 25.54192,-20.43934c21.6124,-2.91991 21.6124,-3.89321 21.6124,-191.74045c0,-187.84725 0,-188.82055 -21.6124,-191.74045c-12.77096,-1.9466 -23.57716,-10.70632 -25.54192,-19.46604c-2.94715,-15.57283 5.89429,-17.51943 71.71386,-17.51943c65.81957,0 74.66101,1.9466 71.71386,17.51943c-1.96476,8.75972 -12.77096,17.51943 -25.54192,19.46604c-18.66525,2.91991 -21.6124,8.75972 -21.6124,51.58499c0,48.66509 6.87667,56.4515 27.50669,36.01217c20.63002,-20.43934 114.93866,-15.57283 145.39249,7.78641c56.97814,41.85198 67.78434,66.18452 67.78434,158.64819c0,90.51707 -11.78858,122.63603 -57.96052,151.83508c-26.52431,17.51943 -79.57292,25.30585 -109.04437,17.51943zm93.32626,-66.18452c49.11908,-51.58499 33.40098,-200.50017 -22.59478,-230.67252c-35.36574,-18.49273 -93.32626,-12.65292 -119.85056,11.67962c-22.59478,21.41264 -24.55954,30.17236 -24.55954,108.0365c0,82.73065 0.98238,85.65056 30.45383,109.9831c41.26003,35.03886 104.13246,35.03886 136.55105,0.9733z"/>
   <path stroke="null" id="svg_9" d="m3488.24794,615.43025c-10.8062,-2.91991 -31.43621,-13.62623 -46.17194,-24.33254c-27.50669,-18.49273 -27.50669,-18.49273 -27.50669,0.9733c0,17.51943 -5.89429,20.43934 -44.20718,20.43934c-37.3305,0 -44.20718,-2.91991 -44.20718,-19.46604c0,-12.65292 6.87667,-19.46604 19.64763,-19.46604c18.66525,0 19.64763,-6.81311 19.64763,-188.82055c0,-180.06083 -0.98238,-188.82055 -19.64763,-193.68706c-10.8062,-2.91991 -19.64763,-11.67962 -19.64763,-20.43934c0,-12.65292 12.77096,-15.57283 69.7491,-15.57283c60.90766,0 68.76672,1.9466 65.81957,17.51943c-1.96476,8.75972 -12.77096,17.51943 -25.54192,19.46604c-18.66525,2.91991 -21.6124,8.75972 -21.6124,51.58499c0,26.27915 1.96476,47.69179 3.92953,47.69179c1.96476,0 19.64763,-6.81311 38.31289,-14.59953c47.15432,-19.46604 71.71386,-18.49273 120.83295,5.83981c55.99576,26.27915 82.52006,79.81075 82.52006,162.5414c0,68.13113 -15.71811,112.90301 -50.10147,145.02197c-24.55954,21.41264 -86.44959,35.03886 -121.81533,25.30585zm78.59053,-47.69179c42.24241,-16.54613 60.90766,-148.91517 28.48907,-209.25988c-29.47145,-56.4515 -109.04437,-69.10443 -158.16345,-25.30585c-19.64763,17.51943 -22.59478,29.19905 -22.59478,102.19669c0,76.89084 1.96476,82.73065 28.48907,109.9831c22.59478,21.41264 38.31289,28.22575 67.78434,28.22575c21.6124,0 47.15432,-2.91991 55.99576,-5.83981z"/>
   <path stroke="null" id="svg_10" d="m3790.82149,611.53705c-65.81957,-19.46604 -94.30864,-101.22339 -49.11908,-143.07536c12.77096,-11.67962 49.11908,-30.17236 80.5553,-40.87868c85.46721,-29.19905 103.15008,-59.37141 58.9429,-102.19669c-35.36574,-36.01217 -112.97389,-32.11896 -112.97389,4.86651c0,31.14566 -10.8062,48.66509 -30.45383,48.66509c-15.71811,0 -18.66525,-7.78641 -18.66525,-48.66509l0,-47.69179l41.26003,-11.67962c84.48482,-22.38594 160.12821,6.81311 180.75823,70.07773c18.66525,54.5049 0.98238,84.67726 -63.85481,112.90301c-97.25579,40.87868 -104.13246,45.74518 -107.0796,73.97094c-2.94715,22.38594 1.96476,29.19905 29.47145,39.90537c17.68287,7.78641 44.20718,11.67962 58.9429,8.75972c20.63002,-3.89321 27.50669,-10.70632 29.47145,-36.01217c1.96476,-22.38594 7.85905,-31.14566 25.54192,-33.09226c19.64763,-2.91991 21.6124,0 21.6124,44.77188l0,48.66509l-49.11908,10.70632c-56.97814,11.67962 -53.04861,11.67962 -95.29102,0z"/>
  </g>
</svg>
